<svg width="427" height="151" xmlns="http://www.w3.org/2000/svg"><g id="Styleguide" stroke="none" stroke-width="1" fill="none" fill-rule="evenodd"><g id="Global-Styles" transform="translate(-64 -3086)"><g id="AASLD-Logo-Color" transform="translate(64 3086)"><path d="M139.304 61.174h28.336l-14.02-33.65-14.316 33.65zm10.17-41.964h8.194l31.397 73.24h-7.997l-10.565-24.645H136.54L125.877 92.45h-7.603l31.2-73.24z" id="Fill-1" fill="#12583D"/><path d="M212.363 61.174H240.7l-14.02-33.65-14.317 33.65zm10.17-41.964h8.194l31.398 73.24h-7.998l-10.564-24.645h-33.965L198.936 92.45h-7.603l31.2-73.24z" id="Fill-2" fill="#12583D"/><path d="M272.686 71.963c.395 9.205 6.22 15.142 15.205 15.142 7.701 0 14.711-5.937 14.711-14.548 0-11.283-11.354-14.153-16.29-15.638-6.616-1.98-18.958-4.751-18.958-19.3 0-11.382 8.985-19.696 20.537-19.696 11.947 0 20.24 9.205 20.24 19.894h-7.306c0-7.423-6.023-13.262-12.934-13.262-8.392 0-13.23 6.433-13.23 12.767 0 8.907 7.8 10.986 17.376 13.757 17.97 4.85 17.872 19.003 17.872 21.18 0 11.283-9.084 21.477-22.018 21.477-9.479 0-22.215-5.64-22.511-21.773h7.306" id="Fill-3" fill="#12583D"/><path id="Fill-4" fill="#12583D" d="M320.47 19.21h7.307v66.61h30.212v6.63H320.47V19.21"/><path d="M372.599 85.819h10.564c6.615 0 16.686 0 25.078-5.938 4.443-3.761 11.453-11.382 11.453-24.15 0-9.699-4.837-18.706-12.44-24.248-6.517-4.256-13.329-5.642-24.09-5.642h-10.565V85.82zm-7.307-66.609h21.327c8.984 0 17.87 2.178 23.794 6.038C423.25 33.264 427 47.218 427 56.028c0 6.829-2.665 21.477-16.587 30.384-5.924 3.86-14.81 6.038-23.794 6.038h-21.327V19.21z" id="Fill-5" fill="#12583D"/><path id="Fill-6" fill="#3A3A39" d="M117.09 104.904h303.414v-.389H117.09z"/><path id="Fill-7" fill="#3A3A39" d="M127.381 138.676h-3.046v-1.203h7.4v1.203h-3.027v12.09h-1.327v-12.09"/><path id="Fill-8" fill="#3A3A39" d="M134.623 137.473h1.326v5.857h6.864v-5.857h1.326v13.293h-1.326v-6.233h-6.864v6.233h-1.326v-13.293"/><path id="Fill-9" fill="#3A3A39" d="M148.156 137.473h7.258v1.203h-5.932v4.78h5.734v1.202h-5.734v4.905h5.932v1.203h-7.258v-13.293"/><path d="M165.99 147.048c.072 1.67 1.13 2.748 2.76 2.748 1.398 0 2.67-1.078 2.67-2.64 0-2.049-2.06-2.569-2.957-2.84-1.2-.358-3.44-.86-3.44-3.502 0-2.065 1.63-3.575 3.728-3.575 2.168 0 3.673 1.67 3.673 3.611h-1.326c0-1.347-1.093-2.407-2.347-2.407-1.524 0-2.402 1.168-2.402 2.317 0 1.617 1.416 1.994 3.154 2.497 3.261.88 3.244 3.449 3.244 3.845 0 2.048-1.65 3.898-3.996 3.898-1.721 0-4.033-1.024-4.086-3.952h1.326" id="Fill-10" fill="#3A3A39"/><path id="Fill-11" fill="#3A3A39" d="M177.748 138.676h-3.047v-1.203h7.403v1.203h-3.03v12.09h-1.326v-12.09"/><path d="M186.299 137.473v8.282c0 .97.142 1.85.447 2.407.806 1.49 2.115 1.634 2.742 1.634.627 0 1.935-.143 2.742-1.634.305-.558.448-1.438.448-2.407v-8.282h1.326v8.282c0 1.113-.179 2.065-.502 2.766-.913 1.994-2.778 2.479-4.014 2.479-1.236 0-3.1-.485-4.014-2.48-.322-.7-.502-1.652-.502-2.765v-8.282h1.327" id="Fill-12" fill="#3A3A39"/><path d="M199.42 149.563h1.916c1.202 0 3.03 0 4.552-1.078.807-.683 2.08-2.066 2.08-4.383 0-1.76-.879-3.396-2.259-4.402-1.182-.772-2.419-1.024-4.373-1.024h-1.917v10.887zm-1.327-12.09h3.87c1.632 0 3.244.395 4.32 1.095 2.33 1.456 3.01 3.989 3.01 5.587 0 1.24-.484 3.9-3.01 5.515-1.076.701-2.688 1.096-4.32 1.096h-3.87v-13.293z" id="Fill-13" fill="#3A3A39"/><path id="Fill-14" fill="#3A3A39" d="M216.124 146.33l-4.605-8.857h1.469l3.782 7.455 3.889-7.455h1.45l-4.659 8.856v4.437h-1.326v-4.437"/><path d="M237.651 149.796c3.064 0 5.699-2.496 5.699-5.658 0-3.108-2.562-5.695-5.699-5.695-2.993 0-5.68 2.443-5.68 5.748 0 3.037 2.598 5.605 5.68 5.605zm0-12.557c3.728 0 7.025 2.965 7.025 6.88 0 3.917-3.315 6.881-7.025 6.881-3.762 0-7.007-3.072-7.007-6.809 0-4.185 3.477-6.952 7.007-6.952z" id="Fill-15" fill="#3A3A39"/><path id="Fill-16" fill="#3A3A39" d="M248.102 137.473h6.703v1.203h-5.377v4.815h5.18v1.203h-5.18v6.072h-1.326v-13.293"/><path id="Fill-17" fill="#3A3A39" d="M264.771 137.473h1.326v12.09h5.484v1.203h-6.81v-13.293"/><path id="Fill-18" fill="#3A3A39" d="M274.343 150.766h1.325v-13.293h-1.325z"/><path id="Fill-19" fill="#3A3A39" d="M278.574 137.473h1.469l4.677 11.641 4.696-11.641h1.433l-5.501 13.293h-1.309l-5.465-13.293"/><path id="Fill-20" fill="#3A3A39" d="M293.666 137.473h7.257v1.203h-5.932v4.78h5.735v1.202h-5.735v4.905h5.932v1.203h-7.257v-13.293"/><path d="M304.67 137.473h3.37c1.775 0 2.652.216 3.262.503 1.487.7 2.365 2.156 2.365 3.79 0 1.923-1.38 3.88-3.943 4.042l3.746 4.958h-1.667l-4.498-6.017c1.685 0 2.258-.019 2.85-.198 1.451-.413 2.186-1.635 2.186-2.82 0-1.043-.592-2.12-1.451-2.552-.789-.412-1.47-.503-2.581-.503h-2.312v12.09h-1.326v-13.293" id="Fill-21" fill="#3A3A39"/><path d="M324.71 149.563h1.918c1.2 0 3.029 0 4.551-1.078.807-.683 2.079-2.066 2.079-4.383 0-1.76-.878-3.396-2.258-4.402-1.182-.772-2.42-1.024-4.372-1.024h-1.918v10.887zm-1.326-12.09h3.87c1.632 0 3.244.395 4.319 1.095 2.33 1.456 3.011 3.989 3.011 5.587 0 1.24-.484 3.9-3.011 5.515-1.075.701-2.687 1.096-4.318 1.096h-3.871v-13.293z" id="Fill-22" fill="#3A3A39"/><path id="Fill-23" fill="#3A3A39" d="M338.154 150.766h1.325v-13.293h-1.325z"/><path d="M343.96 147.048c.073 1.67 1.13 2.748 2.76 2.748 1.398 0 2.67-1.078 2.67-2.64 0-2.049-2.06-2.569-2.956-2.84-1.2-.358-3.44-.86-3.44-3.502 0-2.065 1.63-3.575 3.727-3.575 2.168 0 3.673 1.67 3.673 3.611h-1.326c0-1.347-1.093-2.407-2.347-2.407-1.524 0-2.402 1.168-2.402 2.317 0 1.617 1.416 1.994 3.154 2.497 3.262.88 3.243 3.449 3.243 3.845 0 2.048-1.648 3.898-3.995 3.898-1.721 0-4.033-1.024-4.087-3.952h1.326" id="Fill-24" fill="#3A3A39"/><path id="Fill-25" fill="#3A3A39" d="M353.82 137.473h7.257v1.203h-5.932v4.78h5.735v1.202h-5.735v4.905h5.932v1.203h-7.257v-13.293"/><path d="M367.603 145.09h5.143l-2.545-6.108-2.598 6.108zm1.846-7.617h1.487l5.699 13.293h-1.451l-1.918-4.473H367.1l-1.936 4.473h-1.38l5.664-13.293z" id="Fill-26" fill="#3A3A39"/><path d="M379.953 147.048c.072 1.67 1.128 2.748 2.76 2.748 1.397 0 2.67-1.078 2.67-2.64 0-2.049-2.062-2.569-2.957-2.84-1.2-.358-3.441-.86-3.441-3.502 0-2.065 1.63-3.575 3.727-3.575 2.169 0 3.674 1.67 3.674 3.611h-1.326c0-1.347-1.093-2.407-2.348-2.407-1.522 0-2.4 1.168-2.4 2.317 0 1.617 1.415 1.994 3.154 2.497 3.26.88 3.243 3.449 3.243 3.845 0 2.048-1.65 3.898-3.997 3.898-1.72 0-4.032-1.024-4.085-3.952h1.326" id="Fill-27" fill="#3A3A39"/><path id="Fill-28" fill="#3A3A39" d="M389.811 137.473h7.258v1.203h-5.931v4.78h5.734v1.202h-5.734v4.905h5.93v1.203h-7.257v-13.293"/><path d="M401.283 147.048c.072 1.67 1.128 2.748 2.759 2.748 1.398 0 2.67-1.078 2.67-2.64 0-2.049-2.061-2.569-2.957-2.84-1.2-.358-3.44-.86-3.44-3.502 0-2.065 1.63-3.575 3.727-3.575 2.169 0 3.674 1.67 3.674 3.611h-1.327c0-1.347-1.092-2.407-2.347-2.407-1.523 0-2.4 1.168-2.4 2.317 0 1.617 1.414 1.994 3.153 2.497 3.26.88 3.243 3.449 3.243 3.845 0 2.048-1.649 3.898-3.996 3.898-1.72 0-4.032-1.024-4.086-3.952h1.327" id="Fill-29" fill="#3A3A39"/><path d="M124.532 124.089h5.143l-2.545-6.108-2.598 6.108zm1.845-7.617h1.488l5.699 13.294h-1.452l-1.917-4.474h-6.165l-1.936 4.474h-1.38l5.663-13.294z" id="Fill-30" fill="#3A3A39"/><path id="Fill-31" fill="#3A3A39" d="M136.523 116.472h2.043l4.821 11.317 4.839-11.317h2.042v13.294h-1.326v-11.838h-.036l-4.963 11.838h-1.13l-4.928-11.838h-.035v11.838h-1.327v-13.294"/><path id="Fill-32" fill="#3A3A39" d="M154.286 116.472h7.258v1.203h-5.931v4.78h5.734v1.203h-5.734v4.904h5.931v1.204h-7.258v-13.294"/><path d="M165.292 116.472h3.37c1.773 0 2.651.216 3.26.503 1.488.7 2.366 2.156 2.366 3.79 0 1.923-1.38 3.88-3.943 4.042l3.746 4.959h-1.667l-4.498-6.018c1.685 0 2.258-.018 2.85-.197 1.451-.414 2.186-1.636 2.186-2.822 0-1.041-.591-2.119-1.451-2.55-.79-.413-1.47-.504-2.58-.504h-2.313v12.09h-1.326v-13.293" id="Fill-33" fill="#3A3A39"/><path id="Fill-34" fill="#3A3A39" d="M177.678 129.766h1.326v-13.294h-1.326z"/><path d="M195.582 126.28c-1.416 2.606-3.979 3.72-6.112 3.72-3.709 0-6.935-2.93-6.935-6.863 0-3.934 3.136-6.88 6.918-6.88 3.405 0 5.555 2.388 6.075 3.628h-1.487c-1.452-2.173-3.8-2.425-4.607-2.425-3.1 0-5.572 2.731-5.572 5.695 0 3.108 2.723 5.64 5.59 5.64.664 0 2.832-.09 4.642-2.515h1.488" id="Fill-35" fill="#3A3A39"/><path d="M201.767 124.089h5.144l-2.545-6.108-2.599 6.108zm1.846-7.617h1.487l5.7 13.294h-1.453l-1.917-4.474h-6.165l-1.935 4.474h-1.38l5.663-13.294z" id="Fill-36" fill="#3A3A39"/><path id="Fill-37" fill="#3A3A39" d="M213.741 116.472h1.793l7.4 11.03h.036v-11.03h1.327v13.294h-1.327l-7.867-11.695h-.036v11.695h-1.326v-13.294"/><path d="M237.456 124.089h5.142l-2.544-6.108-2.598 6.108zm1.845-7.617h1.487l5.699 13.294h-1.452l-1.917-4.474h-6.165l-1.936 4.474h-1.38l5.664-13.294z" id="Fill-38" fill="#3A3A39"/><path d="M249.805 126.048c.072 1.67 1.129 2.747 2.76 2.747 1.398 0 2.67-1.078 2.67-2.64 0-2.048-2.06-2.568-2.956-2.839-1.2-.36-3.441-.862-3.441-3.503 0-2.065 1.63-3.574 3.727-3.574 2.169 0 3.674 1.67 3.674 3.61h-1.326c0-1.347-1.093-2.407-2.348-2.407-1.523 0-2.401 1.168-2.401 2.318 0 1.617 1.416 1.994 3.154 2.496 3.261.88 3.243 3.45 3.243 3.845 0 2.048-1.648 3.898-3.996 3.898-1.72 0-4.032-1.024-4.086-3.951h1.326" id="Fill-39" fill="#3A3A39"/><path d="M260.13 126.048c.072 1.67 1.129 2.747 2.76 2.747 1.398 0 2.67-1.078 2.67-2.64 0-2.048-2.06-2.568-2.956-2.839-1.202-.36-3.441-.862-3.441-3.503 0-2.065 1.63-3.574 3.727-3.574 2.169 0 3.673 1.67 3.673 3.61h-1.326c0-1.347-1.093-2.407-2.347-2.407-1.524 0-2.402 1.168-2.402 2.318 0 1.617 1.416 1.994 3.155 2.496 3.261.88 3.243 3.45 3.243 3.845 0 2.048-1.649 3.898-3.996 3.898-1.72 0-4.033-1.024-4.086-3.951h1.325" id="Fill-40" fill="#3A3A39"/><path d="M276.511 128.795c3.064 0 5.699-2.496 5.699-5.658 0-3.108-2.563-5.695-5.699-5.695-2.993 0-5.681 2.443-5.681 5.749 0 3.036 2.599 5.604 5.681 5.604zm0-12.556c3.728 0 7.025 2.964 7.025 6.88 0 3.917-3.316 6.88-7.025 6.88-3.763 0-7.007-3.071-7.007-6.808 0-4.186 3.477-6.952 7.007-6.952z" id="Fill-41" fill="#3A3A39"/><path d="M299.525 126.28c-1.416 2.606-3.978 3.72-6.11 3.72-3.711 0-6.936-2.93-6.936-6.863 0-3.934 3.135-6.88 6.917-6.88 3.406 0 5.556 2.388 6.076 3.628h-1.488c-1.452-2.173-3.8-2.425-4.606-2.425-3.1 0-5.573 2.731-5.573 5.695 0 3.108 2.724 5.64 5.591 5.64.663 0 2.832-.09 4.642-2.515h1.487" id="Fill-42" fill="#3A3A39"/><path id="Fill-43" fill="#3A3A39" d="M303.04 129.766h1.326v-13.294h-1.325z"/><path d="M311.16 124.089h5.143l-2.545-6.108-2.598 6.108zm1.846-7.617h1.487l5.698 13.294h-1.451l-1.918-4.474h-6.165l-1.935 4.474h-1.38l5.664-13.294z" id="Fill-44" fill="#3A3A39"/><path id="Fill-45" fill="#3A3A39" d="M324.944 117.675h-3.047v-1.203h7.402v1.203h-3.03v12.09h-1.325v-12.09"/><path id="Fill-46" fill="#3A3A39" d="M332.185 129.766h1.327v-13.294h-1.327z"/><path d="M344.05 128.795c3.064 0 5.699-2.496 5.699-5.658 0-3.108-2.563-5.695-5.699-5.695-2.993 0-5.681 2.443-5.681 5.749 0 3.036 2.598 5.604 5.681 5.604zm0-12.556c3.727 0 7.025 2.964 7.025 6.88 0 3.917-3.316 6.88-7.025 6.88-3.764 0-7.007-3.071-7.007-6.808 0-4.186 3.476-6.952 7.007-6.952z" id="Fill-47" fill="#3A3A39"/><path id="Fill-48" fill="#3A3A39" d="M354.59 116.472h1.792l7.402 11.03h.036v-11.03h1.325v13.294h-1.325l-7.868-11.695h-.036v11.695h-1.326v-13.294"/><path id="Fill-49" fill="#3A3A39" d="M375.526 116.472h6.702v1.203h-5.376v4.815h5.18v1.204h-5.18v6.072h-1.326v-13.294"/><path d="M392.14 128.795c3.065 0 5.7-2.496 5.7-5.658 0-3.108-2.562-5.695-5.7-5.695-2.992 0-5.68 2.443-5.68 5.749 0 3.036 2.598 5.604 5.68 5.604zm0-12.556c3.728 0 7.025 2.964 7.025 6.88 0 3.917-3.314 6.88-7.024 6.88-3.763 0-7.007-3.071-7.007-6.808 0-4.186 3.477-6.952 7.007-6.952z" id="Fill-50" fill="#3A3A39"/><path d="M402.592 116.472h3.369c1.774 0 2.652.216 3.262.503 1.487.7 2.365 2.156 2.365 3.79 0 1.923-1.38 3.88-3.943 4.042l3.746 4.959h-1.667l-4.498-6.018c1.685 0 2.258-.018 2.85-.197 1.45-.414 2.186-1.636 2.186-2.822 0-1.041-.592-2.119-1.452-2.55-.788-.413-1.47-.504-2.58-.504h-2.313v12.09h-1.325v-13.293" id="Fill-51" fill="#3A3A39"/><path d="M80.894.02c-16.23.214-29.952 5.735-38.072 12.138 19 3.926 39.82 10.534 46.906 21.238 23.234-8.5 41.857-16.947 41.857-16.947C129.68 3.527 106.655-.318 80.894.02" id="Fill-52" fill="#1A3F30"/><path d="M7.006 96.397S6.78 2.035 80.913.019c0 0-29.28-.558-74.134 6.978-15.384 9.452.227 89.4.227 89.4" id="Fill-53" fill="#12583D"/><path d="M15.578 50.518C6.958 73.82 7.006 96.397 7.006 96.397c24.21 17.737 124.579-79.948 124.579-79.948S50.427 53.26 15.578 50.518" id="Fill-54" fill="#E77A2B"/></g></g></g></svg>