<?xml version="1.0" encoding="utf-8"?>
<svg xmlns="http://www.w3.org/2000/svg" viewBox="53.1214 59.6413 45.3186 22.69" width="45.3186px" height="22.69px">
  <path transform="matrix(0.10000000149011612, 0, 0, -0.10000000149011612, 0, 782.9860229492188)" d="M723.793 7157.01C721.395 7188.91 695.512 7233.45 630.512 7233.45 575.145 7233.45 531.215 7194.93 531.215 7119.69 531.215 7045.06 572.734 7006.55 629.906 7006.55 684.082 7006.55 714.773 7039.05 723.793 7086H678.652C673.242 7059.51 655.781 7045.06 630.512 7045.06 592.602 7045.06 576.953 7079.98 576.953 7118.5 576.953 7179.28 608.852 7193.72 630.512 7193.72 667.813 7193.72 675.043 7169.65 678.652 7156.41H723.793V7157.01ZM836.934 7058.91C833.934 7047.48 821.895 7041.47 809.863 7041.47 776.152 7041.47 773.754 7068.54 772.543 7080.57H882.074V7087.8C882.074 7161.23 838.754 7176.27 806.844 7176.27 737.031 7176.27 729.824 7114.28 729.824 7095.02 729.824 7029.42 764.734 7007.76 809.262 7007.76 836.934 7007.76 868.852 7020.39 879.672 7058.91H836.934ZM773.754 7107.66C776.152 7128.72 786.992 7141.37 806.844 7141.37 820.102 7141.37 836.934 7133.54 839.363 7107.66H773.754ZM932.645 7228.03H890.516V7011.98H932.645V7228.03ZM984.402 7228.03H942.273V7011.98H984.402V7228.03" style="fill: rgb(255, 255, 255);"/>
</svg>