<?xml version="1.0" encoding="utf-8"?>
<svg version="1.1" id="Layer_1" xmlns="http://www.w3.org/2000/svg" x="0px" y="0px" viewBox="0 0 590 68" style="enable-background:new 0 0 590 68;">
  <style type="text/css">
	.st0{fill:#FFFFFF;}
	.st1{fill-rule:evenodd;clip-rule:evenodd;fill:#FFFFFF;}
</style>
  <g>
    <g>
      <path class="st0" d="M159.7,21.3v28.3h-2V18h1.9l21.6,28.3V18h2v31.6h-1.8L159.7,21.3z" style="fill: rgb(0, 0, 0);"/>
      <path class="st0" d="M204.6,45.6c-1.2,2.7-3.9,4.4-6.9,4.4c-5.7,0-7.3-3.4-7.3-9V28.5h1.9v13.1c0,3.3,0.6,6.8,5.5,6.8 c4.9,0,6.8-4.7,6.8-8.9V28.5h1.9v21.1h-1.9L204.6,45.6z" style="fill: rgb(0, 0, 0);"/>
      <path class="st0" d="M222.3,50c-5.8,0-10.4-4.6-10.4-11s4.7-10.9,10.6-10.9c5.6,0,7.8,3.1,8.3,3.8l-1.5,1.2c-1-1.1-2.7-3.2-7-3.2 c-4.6,0-8.3,3.7-8.3,8.9c0,5.4,3.5,9.3,8.5,9.3c2.7,0,5.3-1.1,7.1-3.1l1.3,1.2C230.1,47.2,227.9,50,222.3,50z" style="fill: rgb(0, 0, 0);"/>
      <path class="st0" d="M235.3,18h1.9v31.6h-1.9L235.3,18z" style="fill: rgb(0, 0, 0);"/>
      <path class="st0" d="M252.9,50c-6.1,0-10-4.6-10-11c0-6.5,4.5-10.9,10.1-10.9c5.8,0,9.5,4.2,9.5,9.9c0,0.5-0.1,1-0.1,1.5h-17.4 c0.2,5.2,3.4,8.8,8.3,8.8c2.7,0,5.3-0.9,7.3-2.8l1,1.4C261.6,46.8,259,50,252.9,50z M252.9,29.9c-4.9,0-7.7,4.3-7.9,7.7h15.5 C260.5,34.8,258.3,29.9,252.9,29.9L252.9,29.9z" style="fill: rgb(0, 0, 0);"/>
      <path class="st0" d="M268.9,22.6c-1,0-1.8-0.8-1.8-1.8c-0.1-1,0.5-1.9,1.5-2c1-0.1,1.9,0.5,2,1.5c0,0.2,0,0.4,0,0.5 C270.6,21.8,269.8,22.6,268.9,22.6z M267.9,28.5h1.9v21.1h-1.9V28.5z" style="fill: rgb(0, 0, 0);"/>
      <path class="st0" d="M285.8,50c-5.8,0-10.4-4.6-10.4-11s4.7-10.9,10.5-10.9c5.6,0,7.8,3.1,8.3,3.8l-1.5,1.2c-1-1.1-2.7-3.2-7-3.2 c-4.6,0-8.3,3.7-8.3,8.9c0,5.4,3.5,9.3,8.5,9.3c2.7,0,5.3-1.1,7.1-3.1l1.3,1.2C293.6,47.2,291.4,50,285.8,50z" style="fill: rgb(0, 0, 0);"/>
      <path class="st0" d="M304.8,49.6l13.1-31.7h1.2l13.2,31.7H330l-4.1-9.9H311l-4.1,9.9H304.8z M325.2,37.8l-6.7-16.3l-6.7,16.3 L325.2,37.8z" style="fill: rgb(0, 0, 0);"/>
      <path class="st0" d="M344.7,50c-5.8,0-10.4-4.6-10.4-11s4.7-10.9,10.6-10.9c5.6,0,7.8,3.1,8.3,3.8l-1.5,1.2c-1-1.1-2.7-3.2-7-3.2 c-4.6,0-8.3,3.7-8.3,8.9c0,5.4,3.5,9.3,8.5,9.3c2.7,0,5.3-1.1,7.1-3.1l1.3,1.2C352.5,47.2,350.3,50,344.7,50z" style="fill: rgb(0, 0, 0);"/>
      <path class="st0" d="M358.7,22.6c-1,0-1.8-0.8-1.8-1.8c-0.1-1,0.5-1.9,1.5-2c1-0.1,1.9,0.5,2,1.5c0,0.2,0,0.3,0,0.5 C360.4,21.8,359.6,22.6,358.7,22.6z M357.7,28.5h1.9v21.1h-1.9V28.5z" style="fill: rgb(0, 0, 0);"/>
      <path class="st0" d="M383.7,45c-1.4,3.4-4.8,5-8.2,5c-6.3,0-10.2-4.9-10.2-10.9c0-6.4,4.1-11,10.4-11c3.3-0.1,6.4,1.7,8.1,4.6V18 h1.9v31.6h-2L383.7,45z M383.9,39c0-5.7-3.6-9.2-8.3-9.2c-5.3,0-8.3,4.1-8.3,9.2c0,5.3,3.3,9.3,8.3,9.3 C380.6,48.3,383.9,44.4,383.9,39L383.9,39z" style="fill: rgb(0, 0, 0);"/>
      <path class="st0" d="M398.3,48.2c3.1,0,5.2-1.4,5.2-4.1c0-2.5-3-3.9-5.6-4.8c-3-1.1-5.9-2.4-5.9-5.7c0-3.8,3.4-5.5,6.3-5.5 c2.9,0,4.9,1.1,6.3,2.9l-1.2,1.4c-1.6-1.6-2.8-2.5-5.1-2.5s-4.3,1.3-4.3,3.6c0,2.1,2.2,3.1,5,4.2c3.5,1.3,6.4,2.7,6.4,6.3 c0,3.9-3.2,6.1-7.1,6.1c-3.1,0.1-5.9-1.5-7.6-4.1l1.4-1.3C393.7,46.7,395.5,48.2,398.3,48.2z" style="fill: rgb(0, 0, 0);"/>
      <path class="st0" d="M435.8,49.6L427.6,36h-3.4v13.6h-4.5V18h8.9c5.6,0,10.7,2.6,10.7,8.9c0,5.5-3.9,8-7.2,8.7l9,14.1L435.8,49.6z M432.7,22.7c-1.4-1.1-3.1-1.1-5.3-1.1h-3.3v10.7h3.2c2.2,0,3.9-0.1,5.3-1.1c1.4-1,2-2.3,2-4.3S434.1,23.7,432.7,22.7z" style="fill: rgb(0, 0, 0);"/>
      <path class="st0" d="M463.3,39.7h-16.8c0.2,4.3,3,6.9,7,6.9c2.6,0,5.1-0.9,7.2-2.5l1.8,2.5c-0.3,0.2-3.1,3.4-9.6,3.4 c-6.5,0-10.9-4.5-10.9-11.4s5-11.3,11-11.3s10.3,4.3,10.3,10.4C463.4,38.4,463.3,39.1,463.3,39.7z M453,30.6 c-4.4,0-6.3,3.6-6.4,6.2h12.7C459.2,34.4,457.3,30.6,453,30.6z" style="fill: rgb(0, 0, 0);"/>
      <path class="st0" d="M474.1,50.1c-3.7,0-6.6-1.5-8.5-3.9l2.1-2.6c1.8,1.9,4.4,3.1,6.4,3.1s4.2-0.7,4.2-3.1c0-2.4-3.4-3.1-4.9-3.6 c-3.2-1.1-6.4-2.2-6.4-6.4s3.5-6.2,7.3-6.2s6,1.4,7.4,2.8l-1.8,2.7c-1.5-1.5-3.4-2.3-5.5-2.3c-2.1,0-3.5,0.9-3.5,2.7 c0,1.8,2.1,2.6,4.3,3.3c1.2,0.4,2,0.7,2.9,1.1c2.4,1,4.3,2.7,4.3,5.6C482.4,47.9,478.3,50.1,474.1,50.1z" style="fill: rgb(0, 0, 0);"/>
      <path class="st0" d="M506.5,39.7h-16.8c0.2,4.3,3,6.9,7,6.9c2.6,0,5.1-0.9,7.2-2.5l1.8,2.5c-0.3,0.2-3.1,3.4-9.6,3.4 s-10.9-4.5-10.9-11.4s5-11.3,11-11.3c6,0,10.3,4.3,10.3,10.4C506.6,38.4,506.5,39.1,506.5,39.7z M496.2,30.6 c-4.4,0-6.3,3.6-6.4,6.2h12.7C502.4,34.4,500.6,30.6,496.2,30.6L496.2,30.6z" style="fill: rgb(0, 0, 0);"/>
      <path class="st0" d="M524.1,49.6l0-2.7c-1.7,2.1-4.2,3.3-6.9,3.3c-4,0-7.5-2.5-7.5-6.7s3.5-6.4,8.5-6.6l5.8-0.2v-0.9 c0-3.3-2.2-4.9-5.4-4.9c-2.3,0-4.6,0.7-6.6,1.9l-1.3-2.9c2.5-1.4,5.3-2.2,8.2-2.2c6.4,0,9.5,3.2,9.5,9.5v12.6L524.1,49.6z M518.9,39.4c-3.5,0.2-4.9,1.7-4.9,3.8s1.6,3.8,4.5,3.8s4.7-1.9,5.5-3.2v-4.7L518.9,39.4z" style="fill: rgb(0, 0, 0);"/>
      <path class="st0" d="M545.8,31.8h-0.2c-0.7-0.3-1.5-0.5-2.3-0.5c-3.9,0-4.9,4.2-4.9,7.3v10.9H534V27.8h4.4l0,3.3h0.1 c1.1-2.5,3-3.8,5.4-3.8c0.8,0,1.6,0.1,2.3,0.4L545.8,31.8z" style="fill: rgb(0, 0, 0);"/>
      <path class="st0" d="M558.6,50.1c-5.9,0-11-4.4-11-11.4s5.4-11.3,11.2-11.3c5.8,0,8.2,2.8,8.4,3.1l-1.6,3.2 c-1.7-1.8-4.1-2.7-6.5-2.7c-3.8,0-7,2.9-7,7.5s2.8,7.7,7,7.7c2.5,0,4.9-1,6.6-2.7l1.6,3.2C566.7,47.4,564.4,50.1,558.6,50.1z" style="fill: rgb(0, 0, 0);"/>
      <path class="st0" d="M585.6,49.6V37.2c0-3.1-0.5-6.2-4.5-6.2c-4,0-5.7,3.4-5.7,7.8v10.8h-4.4V18h4.4v13.3h0.1 c1.3-2.4,3.9-3.9,6.7-3.8c6.3,0,7.8,4,7.8,9.2v13L585.6,49.6z" style="fill: rgb(0, 0, 0);"/>
    </g>
    <g>
      <path class="st1" d="M130,48.9c0.5-0.4,1.3-0.4,1.7,0.1s0.4,1.3-0.1,1.7l0,0c-11,9.4-24.6,13.7-37.9,12.8 c-12.8-0.8-25.4-6.3-35.4-16.3c-1.2,0.4-2.6-0.2-3-1.5c-0.4-1.2,0.2-2.6,1.5-3c1.2-0.4,2.6,0.2,3,1.5c0.1,0.4,0.2,0.7,0.1,1.1 c4.1,4.1,8.8,7.6,13.9,10.2l-5.2-11h0c-1-0.1-1.7-1-1.6-1.9c0.1-1,1-1.7,1.9-1.6c1,0.1,1.7,1,1.6,1.9c-0.1,0.5-0.3,1-0.8,1.3 l5.7,12.1c1.9,0.9,3.9,1.7,6,2.4l-5.5-20.1c-1.3-0.2-2.2-1.4-2-2.7c0.2-1.3,1.4-2.2,2.7-2c1.3,0.2,2.2,1.4,2,2.7 c-0.1,0.9-0.7,1.6-1.5,1.9l5.7,20.6c2.8,0.8,5.7,1.4,8.7,1.8L86,32.8l0.1,0c-2.3-0.2-4-2.3-3.7-4.6s2.3-4,4.6-3.7s4,2.3,3.7,4.6 c-0.2,1.9-1.7,3.4-3.6,3.7L92.6,61c0.4,0,0.8,0.1,1.2,0.1c2.5,0.2,4.9,0.1,7.4-0.1V30.6c-2.9-0.3-5-2.9-4.7-5.8 c0.3-2.9,2.9-5,5.8-4.7s5,2.9,4.7,5.8c-0.3,2.5-2.2,4.4-4.7,4.7v30.3c2.8-0.3,5.6-0.8,8.3-1.6l3.6-20.9c-2.3-0.5-3.7-2.7-3.2-5 c0.5-2.3,2.7-3.7,5-3.2c2.3,0.5,3.7,2.7,3.2,5c-0.4,1.8-2,3.2-3.8,3.3L112,58.9c2.4-0.8,4.8-1.7,7.1-2.8l4.9-10.8 c-1.2-0.4-1.9-1.7-1.5-3c0.4-1.2,1.7-1.9,3-1.5c1.2,0.4,1.9,1.7,1.5,3c-0.3,0.8-0.9,1.4-1.8,1.6l-4.4,9.9 C124,53.5,127.2,51.3,130,48.9L130,48.9z M0,45.4c-0.1-1,0.6-1.8,1.5-1.9c1-0.1,1.8,0.6,1.9,1.5C3.6,46,2.9,46.9,2,47c0,0,0,0,0,0 C1,47.1,0.1,46.4,0,45.4C0,45.4,0,45.4,0,45.4L0,45.4z M15.3,59.9c-0.2-2.3,1.4-4.4,3.7-4.6c2.3-0.2,4.4,1.4,4.6,3.7 c0.2,2.3-1.4,4.4-3.7,4.6C17.6,63.8,15.5,62.2,15.3,59.9C15.3,59.9,15.3,59.9,15.3,59.9z M6.8,52c-0.1-1.3,0.8-2.5,2.1-2.6 s2.5,0.8,2.6,2.1c0.1,1.3-0.8,2.5-2.1,2.6c0,0,0,0,0,0C8.1,54.2,6.9,53.3,6.8,52C6.8,52,6.8,52,6.8,52z M40,62.7 c0-2.9-2.4-5.3-5.3-5.3c-2.9,0-5.3,2.4-5.3,5.3c0,2.9,2.4,5.3,5.3,5.3C37.7,68,40,65.6,40,62.7z M52.4,53.7c0-2.3-1.9-4.2-4.2-4.2 c-2.3,0-4.2,1.9-4.2,4.2c0,2.3,1.9,4.2,4.2,4.2h0C50.5,57.9,52.4,56,52.4,53.7z" style="fill: rgb(0, 0, 0);"/>
      <path class="st1" d="M2,19.1c-0.5,0.4-1.3,0.4-1.7-0.1c-0.4-0.5-0.4-1.3,0.1-1.7C11.5,7.8,25,3.5,38.4,4.4 c12.8,0.8,25.4,6.3,35.4,16.3c1.2-0.4,2.6,0.2,3,1.5s-0.2,2.6-1.5,3c-1.2,0.4-2.6-0.2-3-1.5c-0.1-0.2-0.1-0.5-0.1-0.8 c0-0.1,0-0.2,0-0.3c-4.1-4.1-8.8-7.6-13.9-10.2l5.2,11l0,0c1,0.1,1.7,1,1.6,1.9c-0.1,1-1,1.7-1.9,1.6c-1-0.1-1.7-1-1.6-1.9 c0.1-0.5,0.3-1,0.8-1.3l-5.7-12.1c-1.9-0.9-3.9-1.7-6-2.4l5.5,20.1c1.3,0.2,2.2,1.4,2,2.7c-0.2,1.3-1.4,2.2-2.7,2 c-1.3-0.2-2.2-1.4-2-2.7c0.1-0.9,0.7-1.6,1.5-1.9L49.3,8.8c-2.8-0.8-5.7-1.4-8.7-1.8l5.5,28.1l-0.1,0c2.3,0.2,4,2.3,3.7,4.6 c-0.2,2.3-2.3,4-4.6,3.7c-2.3-0.2-4-2.3-3.7-4.6c0.2-1.9,1.7-3.4,3.6-3.7L39.4,6.9c-0.4,0-0.8-0.1-1.2-0.1 c-2.5-0.2-4.9-0.1-7.4,0.1v30.4c2.9,0.3,5,2.9,4.7,5.8c-0.3,2.9-2.9,5-5.8,4.7c-2.9-0.3-5-2.9-4.7-5.8c0.3-2.5,2.2-4.4,4.7-4.7V7 c-2.8,0.3-5.6,0.8-8.3,1.6l-3.6,20.9c2.3,0.5,3.7,2.7,3.2,5c-0.5,2.3-2.7,3.7-5,3.2c-2.3-0.5-3.7-2.7-3.2-5c0.4-1.8,2-3.2,3.8-3.3 L20.1,9c-2.4,0.8-4.8,1.7-7.1,2.8L8.1,22.7c1.2,0.4,1.9,1.8,1.5,3c-0.4,1.2-1.8,1.9-3,1.5c-1.2-0.4-1.9-1.8-1.5-3 c0.3-0.8,0.9-1.4,1.8-1.6l4.5-9.9C8,14.5,4.9,16.6,2,19.1z M132.1,22.5c0.1,1-0.6,1.8-1.6,1.9s-1.8-0.6-1.9-1.6 c-0.1-1,0.6-1.8,1.6-1.9c0,0,0,0,0,0C131.1,20.9,132,21.6,132.1,22.5C132.1,22.5,132.1,22.5,132.1,22.5z M116.8,8.1 c0.2,2.3-1.4,4.4-3.7,4.6c-2.3,0.2-4.4-1.4-4.6-3.7c-0.2-2.3,1.4-4.4,3.7-4.6c0,0,0,0,0,0C114.5,4.1,116.6,5.8,116.8,8.1z M125.3,16c0.1,1.3-0.8,2.5-2.1,2.6s-2.5-0.8-2.6-2.1c-0.1-1.3,0.8-2.5,2.1-2.6c0,0,0,0,0,0C124,13.7,125.1,14.7,125.3,16z M92,5.3c0,2.9,2.4,5.3,5.3,5.3c2.9,0,5.3-2.4,5.3-5.3S100.2,0,97.3,0l0,0C94.4,0,92,2.4,92,5.3z M79.7,14.2 c0,2.3,1.9,4.2,4.2,4.2c2.3,0,4.2-1.9,4.2-4.2c0-2.3-1.9-4.2-4.2-4.2C81.6,10,79.7,11.9,79.7,14.2C79.7,14.2,79.7,14.2,79.7,14.2 L79.7,14.2z" style="fill: rgb(0, 0, 0);"/>
    </g>
  </g>
</svg>